<?xml version="1.0" standalone="no"?>
<!DOCTYPE svg PUBLIC "-//W3C//DTD SVG 20010904//EN"
 "http://www.w3.org/TR/2001/REC-SVG-20010904/DTD/svg10.dtd">
<svg version="1.0" xmlns="http://www.w3.org/2000/svg"
 width="500.000000pt" height="500.000000pt" viewBox="0 0 500.000000 500.000000"
 preserveAspectRatio="xMidYMid meet">

<g transform="translate(0.000000,500.000000) scale(0.100000,-0.100000)"
fill="#000000" stroke="none">
<path d="M1945 4720 c-177 -36 -340 -149 -480 -332 -27 -36 -43 -48 -62 -48
-189 0 -737 -61 -760 -84 -14 -14 25 -35 119 -65 206 -66 317 -113 393 -165
16 -12 74 -64 128 -116 78 -75 106 -110 133 -165 90 -185 89 -409 -5 -940
-101 -569 -50 -955 174 -1334 6 -9 19 -30 31 -46 11 -17 24 -35 27 -42 4 -7
-25 -38 -72 -78 -94 -77 -164 -162 -220 -265 -42 -77 -51 -122 -28 -143 6 -7
39 -26 72 -42 l60 -30 240 0 240 0 205 43 c291 62 409 57 550 -21 73 -41 226
-88 348 -108 246 -40 446 -35 542 14 l45 23 -4 132 c-2 73 -2 132 0 133 2 0
51 4 109 9 204 18 361 46 570 102 41 11 93 24 115 29 52 12 95 30 95 39 0 4
-55 10 -122 13 -414 18 -664 220 -732 591 l-22 120 -75 36 c-200 98 -337 210
-452 371 -26 37 -47 70 -47 74 0 4 -8 19 -19 33 -25 36 -72 155 -107 272 -24
82 -28 113 -28 220 -1 132 7 184 27 177 8 -2 15 -40 20 -103 26 -344 254 -691
589 -899 77 -48 266 -124 332 -135 38 -6 72 -13 76 -15 18 -11 197 -26 309
-25 126 0 312 29 386 60 l30 13 -65 14 c-236 49 -347 99 -564 253 -53 37 -207
185 -276 265 -119 137 -261 345 -358 525 -19 36 -38 70 -42 75 -29 39 -133
316 -186 495 -16 52 -46 138 -67 190 -21 52 -43 109 -49 125 -18 49 -106 203
-177 310 -85 128 -230 274 -337 337 -43 26 -120 62 -169 80 -85 30 -99 32
-245 34 -85 1 -173 -2 -195 -6z m285 -459 c68 -41 103 -73 140 -131 65 -102
108 -316 117 -585 l5 -180 36 -65 c70 -129 100 -187 146 -280 26 -52 53 -106
61 -120 77 -145 201 -508 241 -706 24 -119 28 -163 29 -309 0 -165 -1 -173
-32 -270 -45 -139 -138 -271 -248 -353 -167 -123 -423 -121 -623 6 -105 66
-291 267 -343 370 -7 15 -23 43 -34 62 -62 104 -120 313 -136 485 -13 139 -4
407 16 528 8 45 24 141 35 212 11 72 27 162 35 201 22 107 30 363 15 454 -37
225 -175 433 -357 539 -40 23 -73 45 -73 48 0 13 256 -7 300 -23 25 -9 75 -24
111 -34 l67 -17 38 53 c77 107 182 156 319 151 69 -3 88 -8 135 -36z m-432
-3053 c37 -40 55 -54 140 -112 45 -31 100 -63 122 -72 22 -9 40 -20 40 -25 0
-5 -116 -9 -265 -9 -264 0 -315 6 -315 36 0 19 108 132 155 163 74 48 92 51
123 19z m1623 -215 c7 -16 14 -49 16 -75 5 -40 2 -49 -13 -55 -39 -15 -335 15
-449 45 -134 36 -171 50 -159 61 8 8 194 25 404 37 47 3 90 7 95 9 6 2 29 4
53 4 37 1 44 -2 53 -26z"/>
<path d="M1988 4176 c-96 -34 -110 -120 -34 -201 37 -39 73 -45 130 -21 46 19
66 52 66 107 0 52 -32 103 -73 114 -46 14 -53 14 -89 1z"/>
<path d="M3050 4411 c0 -4 13 -27 28 -52 90 -142 242 -476 242 -530 0 -13 23
-31 73 -59 39 -23 84 -49 98 -58 14 -9 46 -30 70 -46 70 -46 239 -224 301
-316 56 -84 128 -217 161 -295 9 -22 30 -74 47 -115 71 -171 100 -283 116
-463 5 -65 7 -68 47 -95 23 -16 58 -37 77 -46 19 -10 61 -31 92 -47 32 -16 95
-43 140 -59 102 -36 106 -33 101 77 -18 393 -86 676 -234 978 -72 146 -118
222 -209 344 -30 40 -62 83 -70 94 -8 12 -24 31 -35 42 -112 119 -151 158
-206 209 -158 146 -383 286 -579 359 -101 38 -260 85 -260 78z"/>
<path d="M833 3892 c-51 -53 -93 -100 -93 -104 0 -3 -6 -13 -13 -20 -47 -48
-160 -230 -230 -371 -50 -102 -65 -140 -122 -317 -201 -623 -106 -1299 263
-1864 298 -457 755 -780 1282 -907 395 -95 837 -75 1215 55 161 55 181 63 308
127 225 113 317 174 542 358 114 94 121 107 48 97 -27 -3 -97 -9 -158 -12 -60
-4 -116 -11 -122 -17 -7 -5 -13 -24 -13 -41 0 -73 -28 -132 -87 -185 -65 -58
-102 -78 -197 -103 -77 -20 -165 -23 -271 -8 -90 13 -235 46 -305 70 -311 106
-550 120 -875 52 -127 -26 -364 -23 -485 6 -205 49 -344 143 -325 219 13 53
60 148 87 177 16 16 28 35 28 43 0 8 -36 48 -80 90 -84 79 -217 230 -262 298
-30 45 -128 225 -128 234 0 3 -13 40 -29 81 -90 229 -118 476 -85 750 12 104
18 135 47 240 35 125 115 306 180 408 28 43 105 150 117 162 3 3 31 35 63 73
33 37 89 96 125 132 l65 65 -19 36 c-43 81 -206 220 -285 245 -102 32 -82 39
-186 -69z"/>
<path d="M1408 3102 c-44 -58 -158 -221 -158 -226 0 -2 -25 -44 -56 -92 -31
-49 -60 -98 -65 -109 -5 -11 -25 -49 -45 -85 -61 -113 -124 -278 -164 -428
-17 -62 -30 -117 -30 -122 0 -17 18 -12 103 29 45 21 130 62 190 90 59 27 107
56 108 63 0 7 2 56 4 108 13 315 38 459 127 724 16 48 28 90 26 92 -3 2 -20
-18 -40 -44z"/>
<path d="M4480 1820 c-41 -5 -150 -9 -241 -10 l-166 -2 -12 -32 c-21 -55 -81
-236 -81 -245 0 -26 226 -120 374 -156 65 -17 69 -16 86 1 31 34 130 312 144
407 6 42 5 47 -11 46 -10 -1 -52 -5 -93 -9z"/>
</g>
</svg>
